<?xml version="1.0" encoding="UTF-8" standalone="no"?>
<svg width="166px" height="158px" viewBox="0 0 166 158" version="1.1" xmlns="http://www.w3.org/2000/svg" xmlns:xlink="http://www.w3.org/1999/xlink">
    <!-- Generator: Sketch 40.3 (33839) - http://www.bohemiancoding.com/sketch -->
    <title>Shape</title>
    <desc>Created with Sketch.</desc>
    <defs></defs>
    <g id="Page-1" stroke="none" stroke-width="1" fill="none" fill-rule="evenodd">
        <g id="Modal-message" transform="translate(-199.000000, -127.000000)" fill="#E3E3E3">
            <path d="M281.622147,127 C274.780109,127 268.271829,128.335032 261.930428,131.005096 C235.730428,141.68535 223.214504,171.890446 234.061638,198.090446 C242.071829,217.448408 260.762275,229.964331 281.622147,229.964331 C288.464186,229.964331 294.972466,228.629299 301.313867,225.959236 C327.513867,215.112102 340.029791,185.073885 329.182657,158.707006 C321.172466,139.515924 302.48202,127 281.622147,127 L281.622147,127 Z M240.736797,192.416561 C237.566096,183.405096 237.566096,173.726115 240.736797,164.547771 L251.75081,164.547771 C250.916415,169.053503 250.415778,173.892994 250.415778,178.398726 C250.415778,182.73758 250.916415,187.410191 252.084568,192.249682 L240.736797,192.249682 L240.736797,192.416561 Z M258.759727,178.398726 C258.759727,173.559236 259.260364,168.886624 260.261638,164.547771 L277.450173,164.547771 L277.450173,192.416561 L260.595396,192.416561 C259.427243,187.743949 258.759727,182.904459 258.759727,178.398726 L258.759727,178.398726 Z M285.794122,137.513376 C291.634886,139.849682 296.975014,147.025478 300.479472,156.203822 L285.794122,156.203822 L285.794122,137.513376 L285.794122,137.513376 Z M277.450173,137.513376 L277.450173,156.203822 L262.764823,156.203822 C266.269281,147.025478 271.609409,139.849682 277.450173,137.513376 L277.450173,137.513376 Z M277.450173,200.76051 L277.450173,219.284076 C271.943166,216.780892 266.769918,209.438217 263.265459,200.76051 L277.450173,200.76051 L277.450173,200.76051 Z M285.794122,219.284076 L285.794122,200.76051 L299.978835,200.76051 C296.474377,209.438217 291.301128,216.780892 285.794122,219.284076 L285.794122,219.284076 Z M285.794122,192.416561 L285.794122,164.547771 L302.982657,164.547771 C303.983931,169.053503 304.484568,173.726115 304.484568,178.398726 C304.484568,182.904459 303.817052,187.57707 302.648899,192.249682 L285.794122,192.249682 L285.794122,192.416561 Z M311.493485,164.547771 L322.507498,164.547771 C325.678198,173.892994 325.511319,183.571975 322.507498,192.416561 L311.159727,192.416561 C312.32788,187.57707 312.828517,182.73758 312.828517,178.565605 C312.828517,173.892994 312.32788,169.053503 311.493485,164.547771 L311.493485,164.547771 Z M318.669281,156.203822 L309.324058,156.203822 C307.488389,150.196178 304.818326,144.689172 301.480746,140.183439 C308.489663,143.854777 314.497307,149.361783 318.669281,156.203822 L318.669281,156.203822 Z M261.763549,140.183439 C258.592848,144.689172 255.922784,150.196178 253.920237,156.203822 L244.741893,156.203822 C248.746988,149.361783 254.587752,143.854777 261.763549,140.183439 L261.763549,140.183439 Z M244.575014,200.76051 L254.420873,200.76051 C256.5903,206.935032 259.427243,212.775796 263.09858,217.615287 C255.589026,213.943949 249.080746,208.103185 244.575014,200.76051 L244.575014,200.76051 Z M300.145714,217.448408 C303.650173,212.608917 306.653994,206.768153 308.656542,200.76051 L318.502402,200.76051 C314.330428,207.769427 307.989026,213.77707 300.145714,217.448408 L300.145714,217.448408 Z M214.369918,284.2 C218.875651,284.2 223.214504,282.197452 226.218326,278.692994 C227.553358,277.024204 228.554631,275.188535 229.222147,273.019108 L266.936797,273.019108 C268.772466,279.527389 274.61323,284.2 281.622147,284.2 C288.631065,284.2 294.471829,279.527389 296.307498,273.019108 L334.022147,273.019108 C335.857816,279.527389 341.69858,284.2 348.707498,284.2 C357.218326,284.2 364.060364,277.357962 364.060364,268.847134 C364.060364,260.336306 357.218326,253.494268 348.707498,253.494268 C341.69858,253.494268 335.857816,258.166879 334.022147,264.675159 L296.307498,264.675159 C294.805587,259.501911 290.800491,255.496815 285.794122,254.161783 L285.794122,242.647134 C285.794122,240.310828 283.958453,238.475159 281.622147,238.475159 C279.285842,238.475159 277.450173,240.310828 277.450173,242.647134 L277.450173,254.161783 C272.276924,255.663694 268.271829,259.66879 266.936797,264.675159 L229.055268,264.675159 C227.553358,259.168153 222.880746,254.829299 217.37374,253.828025 C211.866733,252.826752 206.192848,254.829299 202.52151,259.168153 C199.517689,262.672611 198.349536,267.345223 199.35081,271.850955 C200.518963,277.858599 205.358453,282.864968 211.366096,283.866242 C212.36737,284.2 213.368644,284.2 214.369918,284.2 L214.369918,284.2 Z M348.874377,261.838217 C352.712593,261.838217 355.883294,265.008917 355.883294,268.847134 C355.883294,272.68535 352.712593,275.856051 348.874377,275.856051 C345.203039,275.856051 342.199217,273.019108 341.865459,269.347771 L341.865459,268.847134 L341.865459,268.346497 C342.199217,264.842038 345.203039,261.838217 348.874377,261.838217 L348.874377,261.838217 Z M281.622147,261.838217 C285.460364,261.838217 288.631065,265.008917 288.631065,268.847134 C288.631065,272.68535 285.460364,275.856051 281.622147,275.856051 C277.783931,275.856051 274.61323,272.68535 274.61323,268.847134 C274.61323,265.008917 277.783931,261.838217 281.622147,261.838217 L281.622147,261.838217 Z M207.52788,270.349045 C207.194122,268.179618 207.694759,266.17707 209.029791,264.50828 C210.364823,262.83949 212.36737,262.005096 214.369918,262.005096 C214.870555,262.005096 215.371192,262.005096 215.70495,262.171975 C218.375014,262.672611 220.711319,264.842038 221.211956,267.678981 C221.545714,269.848408 221.045077,271.850955 219.710045,273.519745 C218.041256,275.522293 215.538071,276.356688 212.868007,275.856051 C210.197944,275.188535 208.028517,273.019108 207.52788,270.349045 L207.52788,270.349045 Z" id="Shape"></path>
        </g>
    </g>
</svg>