<?xml version="1.0" encoding="UTF-8"?>
<svg id="Layer_1" xmlns="http://www.w3.org/2000/svg" version="1.1" viewBox="0 0 1341.56 225.67">
  <!-- Generator: Adobe Illustrator 30.2.0, SVG Export Plug-In . SVG Version: 2.1.1 Build 105)  -->
  <defs>
    <style>
      .st0 {
        fill: #fff;
      }
    </style>
  </defs>
  <path class="st0" d="M168.83,94.79v-61.4L111,0l-57.83,33.39v61.41L0,125.5v66.78l57.83,33.39,53.17-30.7,53.17,30.7,57.83-33.39v-66.78l-53.17-30.7h0ZM106.34,181.38l-43.86-25.32v-50.52l43.86,25.32v50.51h0ZM67.03,97.42l43.96-25.38,43.96,25.38-43.96,25.38-43.96-25.38h0ZM115.66,130.87l43.85-25.32v50.51l-43.85,25.32v-50.51h0ZM62.48,38.77l48.51-28.01,48.51,28.01v50.52l-48.51-28.01-48.51,28.01s0-50.52,0-50.52ZM57.83,214.9l-48.51-28.01v-56.02l43.85-25.32v55.89l48.63,28.08-43.97,25.38ZM212.68,186.89l-48.51,28.01-43.97-25.39,48.63-28.07v-55.89l43.86,25.32v56.02h-.01Z"/>
  <g>
    <path class="st0" d="M402.19,192.25h-33.24l-25.89-61.11h-32.03v61.11h-31.93V33.61h66.92c12.65,0,23,2.01,31.05,6.03,8.04,4.02,13.97,9.6,17.77,16.73,3.8,7.13,5.71,15.34,5.71,24.63,0,8.34-1.3,15.38-3.89,21.12-2.6,5.74-6,10.52-10.2,14.32-4.21,3.8-8.8,6.91-13.77,9.33l29.51,66.48h-.01ZM340.31,106.45c8.56,0,15.34-2.3,20.35-6.91s7.51-10.53,7.51-17.77-2.41-13.09-7.24-17.33-10.94-6.36-18.32-6.36h-31.6v48.38h29.3Z"/>
    <path class="st0" d="M450.02,142.88c-.07,5.78.84,10.81,2.74,15.08,1.9,4.28,4.66,7.57,8.28,9.87,3.62,2.3,7.99,3.46,13.11,3.46,5.49,0,10.29-1.17,14.43-3.51,4.13-2.34,7-6.18,8.61-11.52h28.85c-1.24,8.05-4.44,14.92-9.6,20.62-5.16,5.71-11.39,10.06-18.71,13.06-7.31,3-14.92,4.5-22.82,4.5-11.19,0-21.05-2.36-29.57-7.08-8.52-4.72-15.16-11.39-19.91-20.02-4.75-8.63-7.13-18.8-7.13-30.5s2.16-21.56,6.47-30.66c4.31-9.11,10.59-16.31,18.82-21.61s18.12-7.95,29.68-7.95,21.26,2.43,29.13,7.3c7.86,4.87,13.79,11.63,17.77,20.3,3.99,8.67,5.98,18.67,5.98,30.01v8.67h-76.14v-.02ZM449.91,123.79h46.3c0-4.53-.84-8.68-2.52-12.45-1.68-3.77-4.22-6.76-7.62-9-3.4-2.23-7.66-3.35-12.78-3.35s-9.2,1.19-12.67,3.57-6.13,5.47-7.95,9.27c-1.83,3.8-2.74,7.79-2.74,11.96h-.02Z"/>
    <path class="st0" d="M592.97,194.44c-7.9,0-15.51-1.3-22.82-3.89-7.31-2.6-13.49-6.69-18.54-12.29s-8.27-12.85-9.65-21.78h27.76c.95,4.02,2.69,7.2,5.21,9.54s5.39,4,8.61,4.99,6.29,1.48,9.21,1.48c6.14,0,11.1-.97,14.87-2.91s5.65-4.92,5.65-8.94c0-3.07-1.12-5.52-3.35-7.35s-5.91-3.22-11.03-4.17l-19.97-4.17c-10.02-2.12-18.07-5.72-24.14-10.81-6.07-5.08-9.18-12.3-9.33-21.67,0-6.8,1.81-12.91,5.43-18.32s8.98-9.69,16.07-12.84c7.09-3.14,15.8-4.72,26.11-4.72,13.97,0,25.14,3.07,33.52,9.22,8.37,6.14,12.63,14.81,12.78,26h-26.77c-.81-4.39-2.98-7.77-6.53-10.15-3.55-2.38-7.99-3.57-13.33-3.57s-10.13.99-13.71,2.96-5.38,4.97-5.38,9c0,3,1.46,5.36,4.39,7.08,2.92,1.72,7.46,3.2,13.6,4.44l18.43,4.17c6.36,1.54,11.54,3.64,15.52,6.31,3.99,2.67,7.08,5.58,9.27,8.72,2.19,3.15,3.71,6.31,4.55,9.49.84,3.18,1.26,6.05,1.26,8.61,0,7.53-2.01,13.95-6.03,19.25s-9.62,9.34-16.79,12.12-15.47,4.17-24.9,4.17l.03.03Z"/>
    <path class="st0" d="M711.78,194.44c-11.12,0-20.79-2.38-29.02-7.13-8.23-4.75-14.59-11.48-19.09-20.19-4.5-8.7-6.75-19.02-6.75-30.94s2.25-22.34,6.75-31.27c4.5-8.92,10.86-15.87,19.09-20.84,8.23-4.97,17.94-7.46,29.13-7.46s20.88,2.45,29.07,7.35c8.19,4.9,14.52,11.79,18.98,20.68,4.46,8.89,6.69,19.4,6.69,31.54,0,11.41-2.18,21.49-6.53,30.22-4.35,8.74-10.61,15.6-18.76,20.57-8.16,4.97-18.01,7.46-29.57,7.46h.01ZM711.89,170.63c5.63,0,10.17-1.65,13.6-4.94,3.44-3.29,5.94-7.62,7.51-13s2.36-11.25,2.36-17.61c0-6-.71-11.67-2.14-17-1.43-5.34-3.86-9.65-7.3-12.95-3.44-3.29-8.12-4.94-14.04-4.94s-10.19,1.55-13.66,4.66-6.02,7.31-7.62,12.62c-1.61,5.3-2.41,11.17-2.41,17.61,0,5.92.73,11.61,2.19,17.06s3.91,9.89,7.35,13.33,8.16,5.16,14.15,5.16h0Z"/>
    <path class="st0" d="M828.29,194.44c-5.27,0-10.44-.81-15.52-2.41-5.08-1.61-9.71-3.99-13.88-7.13s-7.51-7.02-10.04-11.63-3.79-9.91-3.79-15.91v-78.55h32.04v74.38c0,5.27,1.72,9.58,5.16,12.95s8.48,5.05,15.14,5.05c6.29,0,11.28-1.63,14.97-4.88,3.69-3.25,5.54-7.81,5.54-13.66v-73.83h31.71v113.44h-24.14l-3.73-22.49c-1.32,6.66-3.79,11.76-7.41,15.3-3.62,3.55-7.75,6-12.4,7.35s-9.2,2.03-13.66,2.03h.01Z"/>
    <path class="st0" d="M916.28,192.25v-113.44h30.83v26.88c1.83-5.78,4.41-10.84,7.74-15.2,3.33-4.35,7.37-7.75,12.12-10.2s10.13-3.67,16.13-3.67c1.02,0,1.99.05,2.91.17.91.11,1.59.27,2.03.49v30.5c-.66-.29-1.45-.47-2.36-.55-.92-.07-1.74-.15-2.47-.22-6.29-.51-11.67-.33-16.13.55s-8.08,2.38-10.86,4.5c-2.78,2.12-4.79,4.72-6.03,7.79-1.24,3.07-1.87,6.51-1.87,10.31v62.09h-32.04Z"/>
    <path class="st0" d="M1053.41,76.61c9.51,0,17.72,1.94,24.63,5.81,6.91,3.88,12.36,9.11,16.35,15.69s6.27,13.93,6.86,22.05h-26.66c-.51-3-1.57-5.98-3.18-8.94-1.61-2.96-3.88-5.41-6.8-7.35-2.93-1.94-6.58-2.91-10.97-2.91-7.46,0-13.51,2.87-18.16,8.61s-6.97,14.46-6.97,26.17c0,11.04,2.27,19.8,6.8,26.28,4.53,6.47,10.86,9.71,18.98,9.71,4.32,0,7.92-1.06,10.81-3.18s5.14-4.66,6.75-7.62c1.61-2.96,2.63-5.72,3.07-8.28h26c-.51,7.83-2.78,14.9-6.8,21.23-4.02,6.33-9.49,11.34-16.4,15.03s-15.01,5.54-24.3,5.54c-10.53,0-19.93-2.34-28.2-7.02-8.27-4.68-14.76-11.39-19.47-20.13-4.72-8.74-7.08-19.18-7.08-31.32s2.27-22.01,6.8-30.94c4.53-8.92,10.92-15.89,19.14-20.9,8.23-5.01,17.83-7.51,28.8-7.51v-.02Z"/>
    <path class="st0" d="M1149.63,142.88c-.07,5.78.84,10.81,2.74,15.08,1.9,4.28,4.66,7.57,8.28,9.87s7.99,3.46,13.11,3.46c5.49,0,10.29-1.17,14.43-3.51,4.13-2.34,7-6.18,8.61-11.52h28.85c-1.24,8.05-4.44,14.92-9.6,20.62-5.16,5.71-11.39,10.06-18.71,13.06-7.31,3-14.92,4.5-22.82,4.5-11.19,0-21.05-2.36-29.57-7.08-8.52-4.72-15.16-11.39-19.91-20.02-4.75-8.63-7.13-18.8-7.13-30.5s2.16-21.56,6.47-30.66c4.31-9.11,10.59-16.31,18.82-21.61s18.12-7.95,29.68-7.95,21.26,2.43,29.13,7.3c7.86,4.87,13.79,11.63,17.77,20.3,3.99,8.67,5.98,18.67,5.98,30.01v8.67h-76.14v-.02ZM1149.52,123.79h46.3c0-4.53-.84-8.68-2.52-12.45-1.68-3.77-4.22-6.76-7.62-9-3.4-2.23-7.66-3.35-12.78-3.35s-9.2,1.19-12.67,3.57c-3.47,2.38-6.13,5.47-7.95,9.27-1.83,3.8-2.74,7.79-2.74,11.96h-.02Z"/>
    <path class="st0" d="M1292.58,194.44c-7.9,0-15.51-1.3-22.82-3.89-7.31-2.6-13.49-6.69-18.54-12.29s-8.27-12.85-9.65-21.78h27.76c.95,4.02,2.69,7.2,5.21,9.54s5.39,4,8.61,4.99,6.29,1.48,9.21,1.48c6.14,0,11.1-.97,14.87-2.91s5.65-4.92,5.65-8.94c0-3.07-1.12-5.52-3.35-7.35s-5.91-3.22-11.03-4.17l-19.97-4.17c-10.02-2.12-18.07-5.72-24.14-10.81-6.07-5.08-9.18-12.3-9.33-21.67,0-6.8,1.81-12.91,5.43-18.32s8.98-9.69,16.07-12.84c7.09-3.14,15.8-4.72,26.11-4.72,13.97,0,25.14,3.07,33.52,9.22,8.37,6.14,12.63,14.81,12.78,26h-26.77c-.81-4.39-2.98-7.77-6.53-10.15-3.55-2.38-7.99-3.57-13.33-3.57s-10.13.99-13.71,2.96-5.38,4.97-5.38,9c0,3,1.46,5.36,4.39,7.08,2.92,1.72,7.46,3.2,13.6,4.44l18.43,4.17c6.36,1.54,11.54,3.64,15.52,6.31,3.99,2.67,7.08,5.58,9.27,8.72,2.19,3.15,3.71,6.31,4.55,9.49.84,3.18,1.26,6.05,1.26,8.61,0,7.53-2.01,13.95-6.03,19.25s-9.62,9.34-16.79,12.12-15.47,4.17-24.9,4.17l.03.03Z"/>
  </g>
</svg>