<?xml version="1.0" encoding="UTF-8"?>
<svg id="Layer_1" xmlns="http://www.w3.org/2000/svg" version="1.1" viewBox="0 0 1814.5 227">
  <!-- Generator: Adobe Illustrator 29.2.1, SVG Export Plug-In . SVG Version: 2.1.0 Build 116)  -->
  <defs>
    <style>
      .st0 {
        fill: #fff;
      }
    </style>
  </defs>
  <path class="st0" d="M168.71,95.46v-61.4L110.88.67l-57.83,33.39v61.41L-.11,126.16v66.78l57.83,33.39,53.17-30.7,53.17,30.7,57.83-33.39v-66.78l-53.17-30.7ZM106.22,182.05l-43.86-25.32v-50.52l43.86,25.32v50.51ZM66.92,98.09l43.96-25.38,43.96,25.38-43.96,25.38-43.96-25.38ZM115.55,131.54l43.85-25.32v50.51l-43.85,25.32v-50.51ZM62.37,39.44l48.51-28.01,48.51,28.01v50.52l-48.51-28.01-48.51,28.01v-50.52ZM57.72,215.57l-48.51-28.01v-56.02l43.85-25.32v55.89l48.63,28.08-43.97,25.38ZM212.57,187.56l-48.51,28.01-43.97-25.39,48.63-28.07v-55.89l43.86,25.32v56.02Z"/>
  <g>
    <path class="st0" d="M407.11,192.72h-38.35l-24.43-57.85h-27.17v57.85h-37.36V34.28h69.36c13.22,0,23.92,2.14,32.1,6.41,8.18,4.27,14.17,10.12,17.97,17.53,3.8,7.42,5.7,15.83,5.7,25.26,0,8.25-1.17,15.25-3.51,20.98-2.34,5.73-5.5,10.56-9.48,14.46-3.98,3.91-8.46,7.21-13.42,9.92l28.6,63.88ZM344,106.7c7.01,0,12.66-2.23,16.93-6.68,4.27-4.46,6.41-9.75,6.41-15.89s-2.19-11.67-6.57-15.72-9.61-6.08-15.67-6.08h-27.94v44.38h26.85Z"/>
    <path class="st0" d="M434.17,34.28h37.36v158.44h-37.36V34.28Z"/>
    <path class="st0" d="M503.97,192.72V34.28h60.59c11.54,0,21.95,2.05,31.23,6.14,9.28,4.09,16.6,10.06,21.97,17.91,5.37,7.85,8.05,17.44,8.05,28.76,0,10.52-2.32,19.5-6.96,26.95-4.64,7.45-11.18,13.17-19.61,17.15-8.44,3.98-18.39,5.97-29.86,5.97h-27.94v55.55h-37.47ZM541.12,108.9h27.17c6.65,0,12.14-2.36,16.49-7.07,4.35-4.71,6.52-10.28,6.52-16.71s-2.32-12.11-6.96-16.38c-4.64-4.27-10.1-6.41-16.38-6.41h-26.85v46.57Z"/>
    <path class="st0" d="M648.49,192.72V34.28h112.97l-.22,31.12h-75.17v32.32h64.1v30.46h-64.32v33.09l76.26.11v31.34h-113.63Z"/>
    <path class="st0" d="M833.67,34.28h7.83c4.2,0,9.09-.02,14.68-.05,5.59-.04,11.08-.04,16.49,0,5.41.04,9.82.13,13.26.27,19.14.59,34.75,4.18,46.84,10.79,12.09,6.61,20.96,15.67,26.63,27.17,5.66,11.51,8.49,24.97,8.49,40.38s-2.98,29.88-8.93,41.86c-5.95,11.98-15.03,21.31-27.23,28-12.2,6.68-27.72,10.03-46.57,10.03h-51.5V34.28ZM871.14,63.97v99.05h15.12c7.23,0,14.1-1.64,20.6-4.93,6.5-3.29,11.82-8.62,15.94-16,4.13-7.38,6.19-17.27,6.19-29.69,0-11.03-1.75-20.12-5.26-27.28-3.51-7.16-8.44-12.47-14.79-15.94-6.36-3.47-13.84-5.21-22.46-5.21h-15.34Z"/>
    <path class="st0" d="M1023.67,194.91c-7.09,0-13.57-1.37-19.45-4.11-5.88-2.74-10.56-6.74-14.03-12-3.47-5.26-5.21-11.69-5.21-19.29,0-12.34,4.77-21.84,14.3-28.49,9.53-6.65,24.45-10.01,44.76-10.08l11.5-.11v-5.81c0-4.46-1.26-7.8-3.78-10.03-2.52-2.23-6.48-3.27-11.89-3.12-3.72,0-7.52.86-11.4,2.58-3.87,1.72-6.65,4.88-8.33,9.48h-30.57c.44-8.55,2.98-15.52,7.62-20.93,4.64-5.4,10.81-9.38,18.52-11.94,7.71-2.56,16.34-3.83,25.91-3.83,12.34,0,22.13,1.48,29.37,4.44,7.23,2.96,12.42,7.09,15.56,12.38,3.14,5.3,4.71,11.52,4.71,18.68v79.99h-31.01l-3.29-18.74c-3.58,7.96-8.05,13.44-13.42,16.44-5.37,2.99-12,4.49-19.89,4.49ZM1036.59,170.91c2.48,0,4.86-.44,7.12-1.32,2.26-.88,4.25-2.1,5.97-3.67,1.71-1.57,3.1-3.3,4.16-5.2,1.06-1.9,1.62-3.95,1.7-6.14v-15.45l-9.2.11c-3.8,0-7.72.53-11.78,1.59-4.05,1.06-7.47,2.76-10.25,5.09-2.78,2.34-4.16,5.59-4.16,9.75,0,4.75,1.62,8.48,4.88,11.18,3.25,2.7,7.1,4.05,11.56,4.05Z"/>
    <path class="st0" d="M1186.16,104.95h-24.87l.11,55.88c0,2.26.35,3.94,1.04,5.04.69,1.1,1.66,1.83,2.9,2.19,1.24.37,2.78.55,4.6.55h16.44v22.46c-1.53.66-3.91,1.35-7.12,2.08-3.22.73-7.93,1.1-14.14,1.1-10.88,0-19.3-1.39-25.26-4.16-5.96-2.78-10.08-6.56-12.38-11.34-2.3-4.78-3.45-10.21-3.45-16.27v-57.53h-18.41v-25.53h19.72l9.53-34.73h26.41v34.51h24.87v25.75Z"/>
    <path class="st0" d="M1240.62,194.91c-7.09,0-13.57-1.37-19.45-4.11-5.88-2.74-10.56-6.74-14.03-12-3.47-5.26-5.21-11.69-5.21-19.29,0-12.34,4.77-21.84,14.3-28.49,9.53-6.65,24.45-10.01,44.76-10.08l11.5-.11v-5.81c0-4.46-1.26-7.8-3.78-10.03-2.52-2.23-6.48-3.27-11.89-3.12-3.72,0-7.52.86-11.4,2.58-3.87,1.72-6.65,4.88-8.33,9.48h-30.57c.44-8.55,2.98-15.52,7.62-20.93,4.64-5.4,10.81-9.38,18.52-11.94,7.71-2.56,16.34-3.83,25.91-3.83,12.34,0,22.13,1.48,29.37,4.44,7.23,2.96,12.42,7.09,15.56,12.38,3.14,5.3,4.71,11.52,4.71,18.68v79.99h-31.01l-3.29-18.74c-3.58,7.96-8.05,13.44-13.42,16.44-5.37,2.99-12,4.49-19.89,4.49ZM1253.55,170.91c2.48,0,4.86-.44,7.12-1.32,2.26-.88,4.25-2.1,5.97-3.67,1.71-1.57,3.1-3.3,4.16-5.2,1.06-1.9,1.62-3.95,1.7-6.14v-15.45l-9.2.11c-3.8,0-7.72.53-11.78,1.59-4.05,1.06-7.47,2.76-10.25,5.09-2.78,2.34-4.16,5.59-4.16,9.75,0,4.75,1.62,8.48,4.88,11.18,3.25,2.7,7.1,4.05,11.56,4.05Z"/>
    <path class="st0" d="M1400.04,194.91c-5.04,0-9.5-.66-13.37-1.97-3.87-1.31-7.23-3.12-10.08-5.42-2.85-2.3-5.22-5-7.12-8.11-1.9-3.1-3.43-6.41-4.6-9.92l-4.38,23.23h-26.74V29.89h37.47v63.66c1.53-2.7,3.45-5.06,5.75-7.07,2.3-2.01,4.89-3.69,7.78-5.04,2.88-1.35,5.93-2.39,9.15-3.12,3.21-.73,6.57-1.1,10.08-1.1,13.95,0,24.87,5.13,32.76,15.4,7.89,10.26,11.83,24.53,11.83,42.79,0,11.98-1.86,22.43-5.59,31.34-3.73,8.91-9.19,15.83-16.38,20.76-7.2,4.93-16.05,7.4-26.57,7.4ZM1391.49,168.5c5.92,0,10.87-2.5,14.85-7.51,3.98-5,5.97-13.6,5.97-25.8,0-11.18-1.96-19.19-5.86-24.05-3.91-4.86-8.93-7.29-15.07-7.29-4.24,0-7.87,1.1-10.9,3.29-3.03,2.19-5.33,5.61-6.9,10.25-1.57,4.64-2.36,10.57-2.36,17.81,0,12.27,1.75,20.89,5.26,25.86,3.51,4.97,8.51,7.45,15.01,7.45Z"/>
    <path class="st0" d="M1500.52,194.91c-7.09,0-13.57-1.37-19.45-4.11-5.88-2.74-10.56-6.74-14.03-12-3.47-5.26-5.21-11.69-5.21-19.29,0-12.34,4.77-21.84,14.3-28.49,9.53-6.65,24.45-10.01,44.76-10.08l11.5-.11v-5.81c0-4.46-1.26-7.8-3.78-10.03-2.52-2.23-6.48-3.27-11.89-3.12-3.72,0-7.52.86-11.4,2.58-3.87,1.72-6.65,4.88-8.33,9.48h-30.57c.44-8.55,2.98-15.52,7.62-20.93,4.64-5.4,10.81-9.38,18.52-11.94,7.71-2.56,16.34-3.83,25.91-3.83,12.34,0,22.13,1.48,29.37,4.44,7.23,2.96,12.42,7.09,15.56,12.38,3.14,5.3,4.71,11.52,4.71,18.68v79.99h-31.01l-3.29-18.74c-3.58,7.96-8.05,13.44-13.42,16.44-5.37,2.99-12,4.49-19.89,4.49ZM1513.45,170.91c2.48,0,4.86-.44,7.12-1.32,2.26-.88,4.25-2.1,5.97-3.67,1.71-1.57,3.1-3.3,4.16-5.2,1.06-1.9,1.62-3.95,1.7-6.14v-15.45l-9.2.11c-3.8,0-7.72.53-11.78,1.59-4.05,1.06-7.47,2.76-10.25,5.09-2.78,2.34-4.16,5.59-4.16,9.75,0,4.75,1.62,8.48,4.88,11.18,3.25,2.7,7.1,4.05,11.56,4.05Z"/>
    <path class="st0" d="M1639.24,194.91c-7.89,0-15.6-1.31-23.12-3.94-7.53-2.63-13.95-6.83-19.29-12.6-5.33-5.77-8.77-13.29-10.3-22.57h32c.95,3.87,2.67,6.83,5.15,8.88,2.48,2.05,5.15,3.43,8,4.16,2.85.73,5.3,1.1,7.34,1.1,5.4,0,9.79-.77,13.15-2.3,3.36-1.53,5.04-3.87,5.04-7.01,0-2.63-1.04-4.69-3.12-6.19-2.08-1.5-5.68-2.68-10.79-3.56l-18.41-3.4c-10.45-1.97-18.85-5.61-25.2-10.9-6.36-5.3-9.57-12.8-9.64-22.52-.07-6.94,1.79-13.18,5.59-18.74,3.8-5.55,9.39-9.95,16.76-13.2,7.38-3.25,16.44-4.88,27.17-4.88,14.68,0,26.37,3.22,35.06,9.64,8.69,6.43,13.08,15.3,13.15,26.63h-30.68c-.8-3.87-2.87-6.81-6.19-8.82-3.33-2.01-7.29-3.01-11.89-3.01s-8.6.79-11.78,2.36c-3.18,1.57-4.77,3.93-4.77,7.07,0,2.41,1.39,4.35,4.16,5.81,2.78,1.46,7.19,2.78,13.26,3.95l16.55,3.4c6.79,1.68,12.31,3.93,16.54,6.74,4.24,2.81,7.51,5.86,9.81,9.15,2.3,3.29,3.89,6.56,4.77,9.81.88,3.25,1.32,6.12,1.32,8.6,0,7.82-2.16,14.43-6.46,19.83-4.31,5.41-10.21,9.52-17.7,12.33-7.49,2.81-15.98,4.22-25.48,4.22Z"/>
    <path class="st0" d="M1740.15,144.62c-.07,5.19.73,9.55,2.41,13.09,1.68,3.54,4.05,6.23,7.12,8.05,3.07,1.83,6.65,2.74,10.74,2.74,4.67,0,8.82-.97,12.44-2.9,3.62-1.93,6.26-5.31,7.94-10.14h33.31c-1.24,8.26-4.51,15.32-9.81,21.2-5.3,5.88-11.74,10.39-19.34,13.53-7.6,3.14-15.45,4.71-23.56,4.71-11.54,0-21.68-2.37-30.41-7.12-8.73-4.75-15.52-11.43-20.38-20.05-4.86-8.62-7.29-18.74-7.29-30.35s2.23-21.09,6.68-30.19c4.46-9.09,10.88-16.36,19.29-21.8,8.4-5.44,18.52-8.16,30.35-8.16s21.99,2.5,30.02,7.51c8.04,5,14.08,11.87,18.13,20.6,4.05,8.73,6.08,18.72,6.08,29.97v9.31h-73.74ZM1740.04,123.14h39.23c0-3.73-.73-7.14-2.19-10.25-1.46-3.1-3.65-5.57-6.57-7.4-2.92-1.83-6.54-2.74-10.85-2.74-3.94,0-7.38.97-10.3,2.9-2.92,1.94-5.22,4.46-6.9,7.56-1.68,3.11-2.48,6.41-2.41,9.92Z"/>
  </g>
</svg>
