<svg xmlns="http://www.w3.org/2000/svg" viewBox="0 0 640 640"><!--!Font Awesome Pro v7.2.0 by @fontawesome - https://fontawesome.com License - https://fontawesome.com/license (Commercial License) Copyright 2026 Fonticons, Inc.--><path d="M503 244.3L363.3 104.6C357.1 98.4 346.9 98.4 340.7 104.6L264.6 180.7C258.4 186.9 258.4 197.1 264.6 203.3L404.3 343C411.8 350.5 416 360.7 416 371.3L416 448C522 448 608 362 608 256L531.3 256C520.7 256 510.5 251.8 503 244.3zM385.9 81.9L525.7 221.7C527.2 223.2 529.2 224 531.4 224L616.1 224C629.4 224 640.1 234.7 640.1 248L640.1 256C640.1 379.7 539.8 480 416.1 480L408.1 480C394.8 480 384.1 469.3 384.1 456L384.1 371.3C384.1 369.2 383.3 367.1 381.8 365.6L347.5 331.3L115.5 563.3C96 582.8 64.4 582.8 44.9 563.3C25.4 543.8 25.4 512.2 44.9 492.7L276.9 260.7L242.2 226C223.5 207.3 223.5 176.9 242.2 158.1L318.3 82C337 63.3 367.4 63.3 386.2 82zM299.3 283.3L67.3 515.3C60.3 522.3 60.3 533.7 67.3 540.7C74.3 547.7 85.7 547.7 92.7 540.7L324.7 308.7L299.3 283.3zM483.3 76.7L531.3 124.7C537.5 130.9 537.5 141.1 531.3 147.3C525.1 153.5 514.9 153.5 508.7 147.3L460.7 99.3C454.5 93.1 454.5 82.9 460.7 76.7C466.9 70.5 477.1 70.5 483.3 76.7z"/></svg>
