<svg xmlns="http://www.w3.org/2000/svg" viewBox="0 0 576 512"><!--!Font Awesome Pro v7.2.0 by @fontawesome - https://fontawesome.com License - https://fontawesome.com/license (Commercial License) Copyright 2026 Fonticons, Inc.--><path d="M45.2 160L269.4 67.7c5.9-2.4 12.2-3.7 18.6-3.7s12.7 1.3 18.6 3.7L530.8 160 306.6 252.3c-5.9 2.4-12.2 3.7-18.6 3.7s-12.7-1.3-18.6-3.7L45.2 160zM32 189.2L96 215.5 96 384c0 53 86 96 192 96s192-43 192-96l0-168.5 81.2-33.4c9-3.7 14.8-12.4 14.8-22.1s-5.8-18.4-14.8-22.1L318.8 38.1C309 34.1 298.6 32 288 32s-21 2.1-30.8 6.1L14.8 137.9C5.8 141.6 0 150.3 0 160L0 464c0 8.8 7.2 16 16 16s16-7.2 16-16l0-274.8zM128 384l0-155.3 129.2 53.2c9.8 4 20.2 6.1 30.8 6.1s21-2.1 30.8-6.1L448 228.7 448 384c0 7.9-7.2 23.6-38.5 39.3-29.4 14.7-72.3 24.7-121.5 24.7s-92-10-121.5-24.7C135.2 407.6 128 391.9 128 384z"/></svg>
