<svg xmlns="http://www.w3.org/2000/svg" viewBox="0 0 448 512"><!--!Font Awesome Pro v7.2.0 by @fontawesome - https://fontawesome.com License - https://fontawesome.com/license (Commercial License) Copyright 2026 Fonticons, Inc.--><path d="M448 48c0-8.8-7.2-16-16-16s-16 7.2-16 16l0 416c0 8.8 7.2 16 16 16s16-7.2 16-16l0-416zM293.3 128c-8.8 0-16 7.2-16 16l0 320c0 8.8 7.2 16 16 16s16-7.2 16-16l0-320c0-8.8-7.2-16-16-16zM170.7 272c0-8.8-7.2-16-16-16s-16 7.2-16 16l0 192c0 8.8 7.2 16 16 16s16-7.2 16-16l0-192zM32 400c0-8.8-7.2-16-16-16S0 391.2 0 400l0 64c0 8.8 7.2 16 16 16s16-7.2 16-16l0-64z"/></svg>
